<?xml version="1.0" encoding="utf-8"?>
<!-- Generator: Adobe Illustrator 28.0.0, SVG Export Plug-In . SVG Version: 6.00 Build 0)  -->
<svg version="1.1" id="图层_1" xmlns="http://www.w3.org/2000/svg" xmlns:xlink="http://www.w3.org/1999/xlink" x="0px" y="0px"
	 viewBox="0 0 512 512" style="enable-background:new 0 0 512 512;" xml:space="preserve">
<style type="text/css">
	.st0{fill:#091414;}
	.st1{fill:#1E2828;}
	.st2{fill:#B20517;}
	.st3{fill:#B20617;}
	.st4{fill:#F7E524;}
	.st5{fill:#0A1515;}
	.st6{fill:#0B1515;}
	.st7{fill:#82D2F2;}
	.st8{fill:#F8F5F0;}
	.st9{fill:#0D1817;}
	.st10{fill:#84CFEE;}
	.st11{fill:#B30818;}
	.st12{fill:#87D4F2;}
	.st13{fill:#2C3835;}
	.st14{fill:#F7F4ED;}
	.st15{fill:#F8F5EF;}
	.st16{fill:#F7F4EE;}
	.st17{fill:#0C1717;}
	.st18{fill:#0E1919;}
	.st19{fill:#162325;}
	.st20{fill:#132021;}
	.st21{fill:#0B1516;}
	.st22{fill:#E6E6E3;}
	.st23{fill:#EFDE2A;}
	.st24{fill:#B30617;}
	.st25{fill:#F7F4EF;}
	.st26{fill:#E7E7E3;}
	.st27{fill:#E0E3E1;}
	.st28{fill:#0B1616;}
	.st29{fill:#EDEDE9;}
</style>
<g>
	<g>
		<path class="st0" d="M48.1,228.4c-1.6-9.5-3-19.1-4.8-28.6c-1.1-5.7-2.5-11.4-4-17.1c-0.5-1.9-1.5-3.8-2.8-5.2
			c-9.2-9.8-15.4-21.1-18-34.4c-0.1-0.3-0.5-0.6-0.8-0.9c0-7.7,0-15.4,0-23.1c0.4-0.9,1-1.7,1.2-2.6c2.3-10,6.6-19,13.1-27
			c1.8-2.2,3.3-4.6,4.4-7.2c4.5-10.1,10.7-19,18.8-26.6c1.1-1.1,2.1-2.3,2.4-2.7C54.5,47.1,50.9,42,49,36.5
			c-3-8.9,2.3-21.1,10.2-22.8c11.6-2.5,23-1.3,32,8.1c1.2,1.3,2.4,2.6,3.6,3.9c6.5-2.9,12.8-5.8,19-8.5C134.4,8,156.2,4,178.5,2.2
			c6-0.5,11.9-1.5,17.9-2.2c4.5,0,8.9,0,13.4,0c1,0.4,2.1,1.2,3.1,1.2c9.6,0.1,19.1,0,28.7-0.1C258.6,2.3,274.9,6.5,290,14
			c5.3-3.1,10.2-6.3,15.4-8.9c9.4-4.7,24.5-2.3,31.5,5.3c8.2,8.9,8.9,17.1,0.8,25c-2.7,2.7-5.4,5.3-7.7,7.6
			c5.3,10,10.7,19.5,15.4,29.2c7.9,16.4,8.6,33.6,7.1,51.5c-1.8,20.3-9.6,38.7-16,57.6c-4.2,12.4-8.4,24.8-7.6,38.2
			c-1.6,0.5-3.2,1-4.9,1.6c-0.4-0.6-1.2-1.2-1.2-1.8c0.6-6.9,0.7-14,2.3-20.7c2.3-9.5,5.7-18.7,8.7-28c5.4-17.1,12.4-33.9,12.1-52.3
			c-0.2-7.7,1-15.5-0.2-23.1c-2.5-16.7-10.3-31.3-19.9-45.1c-2.1-3.1-4.2-3.9-7.5-2c-1.4,0.8-3.3,1-4.9,1.4
			c-0.2-0.5-0.5-1.1-0.7-1.6c2.2-1.4,4.5-2.7,6.7-4.2c4.9-3.4,10.1-6.7,14.7-10.6c4.5-3.8,5.8-12.4,2.7-16.2
			c-7.9-9.5-16.3-12.2-28.4-8.2c-8,2.6-14.6,7.4-20,13.8c-1.7,2-3.8,3.6-5.7,5.4c-0.5-0.4-0.9-0.9-1.4-1.3c1.6-2.3,3.2-4.6,4.8-7
			c-0.6-0.5-1.3-1.2-2.2-1.6c-9.9-4.1-20.1-6.7-30.7-8.9c-14.6-3-29.1-4.3-43.9-3.2C196.1,7,183.1,8.2,170,9.8
			c-10.2,1.2-20.5,2.5-30.5,4.9c-8.6,2.1-16.9,5.7-25.1,9.2c-7.8,3.4-17.2,4.6-21.6,14.6c-1.2-3.9-1.5-7-3-9.4
			C85.3,21.4,78.8,16.5,69.2,17c-3.8,0.2-7.5-0.5-10.8,2.4c-8,7.1-8.7,15.2-1.7,23.7c3.4,4.1,6.7,8.2,10.2,12.4
			c-10,3.8-14.2,12.1-20.4,20c2-0.4,3.1-0.3,3.9-0.7c15.3-9.4,32-10.7,48.8-6.4c17.4,4.5,30.1,15.3,36.5,32.6
			c7.5,20,7,40.1-0.6,59.8c-4.2,11-11.6,20-21.9,26.4c-12.3,7.6-26,9.2-39.8,8.1c-7.5-0.6-14.8-3.5-21.5-7.4c-1.7-1-3.7-1.5-5.9-2.3
			c1.1,5,2.3,9,2.8,13.1c1.5,11.1,2.6,22.2,3.9,33.3C51.2,230.8,49.6,229.6,48.1,228.4z M138.7,127.2c0-5.7-1.5-15.5-5.4-25
			c-9.2-22.2-27.9-33.8-51.7-31.9c-0.8,0.1-1.8,0.4-2.4,0.1c-4.5-2.1-8.6-0.1-12.8,1c-32.2,8.6-52,43.9-42.8,76
			c6.9,24.3,27.6,42.3,53.6,44.8c20.6,2,37.2-4.8,49.3-21.8C134.7,158.8,138.2,145.7,138.7,127.2z"/>
		<path class="st1" d="M241.5,1.1c-9.6,0-19.1,0.1-28.7,0.1c-1.1,0-2.1-0.8-3.1-1.2c10.5,0,21.1,0,31.6,0
			C241.1,0.4,241.1,0.8,241.5,1.1z"/>
		<path class="st2" d="M357.5,262.9c0.9,0.8,1.9,1.5,2.6,2.5c18.4,26.8,36.7,53.7,55,80.6c23.8,34.8,47.7,69.7,71.6,104.5
			c2.6,3.8,5,7.7,7.6,11.5c-0.2,0.4-0.4,0.9-0.6,1.3c-4.2-0.6-8.5-1.2-12.7-1.8c-24.5-3.8-49-7.9-73.6-11.4
			c-6.9-1-14.1-0.7-21.2-0.2c-2.5,0.2-5.2,2-7.2,3.8c-10.6,9.1-20.7,18.7-31.5,27.5c-6,5-12.8,9.1-19.5,13.2c-8.2,5-16.9,6.4-26,2.2
			c-15-6.9-30-13.8-45.1-20.5c-11.2-5-22.6-9.6-33.9-14.4c-7.7-3.2-15.3-2.1-22,2.1c-8,5-15.9,10.4-22.9,16.7
			c-10.4,9.5-19.9,20-29.8,30c-0.5,0.5-1.4,0.7-3,1.5c-10.4-29.2-20.7-58.2-31-87.2c2.7-4,1.9-10.8,9.1-11.3
			c0.4-3.5-2.6-4.6-4.5-6.5c-1.6-7.1-7.4-11.6-12.9-13.9c-5.5-2.3-12.7-0.7-19.2-0.8c-3.2-0.3-6.4-0.6-9.6-0.8
			c-6.5-6.1-13.1-12.1-19.5-18.3c-1.3-1.3-1.8-3.4-2.7-5.1c0.9,0.3,1.9,0.5,2.8,0.8c9.3,2.6,18.5,5.7,27.9,7.7
			c8.7,1.9,17.7,2.6,26.6,3.7c10.3,1.3,20.6,2.8,30.9,3.6c10.4,0.8,20.8,1,31.3,1.5c8.5,3.9,17,3.3,25.5,0
			c12.7-0.6,25.3-0.2,37.9-3.6c11.9-3.2,24.4-4.7,36.5-7.2c7.4-1.5,14.7-3.2,21.9-5.4c11.6-3.5,23.1-7,34.3-11.4
			c3.6-1.4,8.4-3.4,9.2-8.6c1.6-9.8,4-19.6,4.6-29.4c0.8-13.3-3.2-26.1-6.5-38.8c-0.8-3.1-0.4-4.8,2.2-6.5
			C346,270.9,351.7,266.8,357.5,262.9z M304.9,390.3c-14.7-4.9-23.3,0.7-25.7,13.6c-0.8,1.8-1.7,3.7-2.5,5.5
			c0.5-0.1,1.1-0.2,1.6-0.3c1.9,2.3,4.2,4.3,5.5,6.9c3.4,6.4,6.9,12.6,12.4,17.5c4.6,4.1,8.6,5.2,13,2.7c3.5-2,4.9-6.3,3.3-11.7
			c-1.8-6.1-3.2-12.5-6.2-18c-3.4-6-3.1-10.3,2.4-14.2c0.2-0.1,0-0.7,0-1.5C307.5,390.7,306.2,390.5,304.9,390.3z"/>
		<path class="st3" d="M48.1,228.4c1.6,1.2,3.1,2.4,4.7,3.6c4,2.5,7.7,5.9,12,7.2c10,3,20.3,5.1,30.6,7.1
			c11.9,2.3,23.9,4.8,36.1,4.2c1.4,0.3,2.7,0.8,4.1,0.8c15.8,0.1,31.5,0.1,47.3,0.1c12.7,0.1,25.5,0.1,38.2,0.2
			c3.6,0,7.3,0.4,10.9-0.2c11.2-1.8,22.4-3.5,33.5-6c20.9-4.6,40.8-11.8,58.5-24.1c1.6-0.5,3.2-1,4.9-1.6c1.6,2.3,3.2,4.6,4.8,7
			c2.5,3.8,4.9,7.5,7.4,11.3c-3.1,2.9-6.1,5.7-10.3,9.6c-0.9-8.5-1.7-15.5-2.6-23.4c-1.7,0.9-3,1.6-4.2,2.2
			c-0.6,0.2-1.1,0.4-1.6,0.7c-25.4,15.3-53.5,21.8-82.3,26c-3.2,0.5-6.4,1.2-10.6,2c11.6,12.6,22.5,24.5,33.8,36.7
			c-26.9,25.1-53.4,50-80.5,75.3c-27.2-26-53.7-51.5-80.4-77.1c11.2-11.7,21.9-22.9,33.4-34.9c-5.4-0.8-9.6-1.4-13.7-2.1
			c-15.5-2.7-31-5.1-46.3-8.2c-7.6-1.5-15-4.2-22.5-6.4c-1.4-2.5-3.1-4.1-6.2-2.6c-0.4-1.5-0.8-3-1.2-4.5
			C45.4,229.3,45.8,228,48.1,228.4z M243.5,277.9c-3.6-4.4-7.4-8.7-10.9-13.3c-4.5-6-9.9-8.8-17.9-8.7c-22.6,0.3-45.3-0.3-67.9-0.7
			c-3.9-0.1-6.8,1-9.5,3.9c-8.6,9.2-17.4,18.1-26.1,27.1c-0.9,1-1.7,2.1-2.8,3.6c24.8,23.9,49.4,47.6,74.1,71.3
			c25.1-23.5,49.8-46.6,74.1-69.3c-1.6-2.3-2.8-4.4-4.4-6.1c-2.3-2.3-5-4.3-7.5-6.4C244.3,278.9,243.9,278.4,243.5,277.9z"/>
		<path class="st4" d="M174.5,385.4c-10.4-0.5-20.9-0.6-31.3-1.5c-10.3-0.8-20.6-2.3-30.9-3.6c-8.9-1.1-17.8-1.9-26.6-3.7
			c-9.4-2-18.6-5.1-27.9-7.7c-0.9-0.3-1.9-0.5-2.8-0.8c0,0-0.5-0.1-0.5-0.1c-0.9-2.5-1.8-5.1-2.8-7.9c1.6-0.1,3.2-0.2,4.7-0.4
			c8.1,1.6,16.2,3.4,24.4,4.8c7.8,1.3,15.6,2.5,23.4,3.2c6.7,0.6,13.5,0.6,20.2,0.9c4.5,1.1,9,2.8,13.7,3.2
			c5.6,0.5,11.3-0.1,16.9-0.2c1.4,0.4,2.9,1.1,4.3,1.2c5.6,0.1,11.2,0.1,17.3,0.1C176,377.5,179,382,174.5,385.4z"/>
		<path class="st5" d="M56.5,359.6c-1.5,0.1-3.1,0.2-4.7,0.4c1,2.9,1.9,5.4,2.8,7.9c-0.9-0.6-2.3-1-2.7-1.8
			c-4.8-9.5-9.2-19-10.1-30.1c-1.3-16.5,0.5-32.7,2.4-48.9c0.5-4-0.1-7.3-2.3-10.8c-5.8-9.2-11.3-18.6-16.3-28.3
			c-1.6-3.2-1.9-7.4-1.7-11.1c0.4-6.7,5.1-9.5,11.4-7.2c2.8,1,5.3,2.9,8,4.3c1.2,0.6,2.5,1.1,3.7,1.6c3.1-1.5,4.8,0.1,6.2,2.6
			c0.3,2.3,1.2,4.7,1,7c-1.2,13.4-2.9,26.8-4,40.2c-1.2,14.6-2.7,29.3-2.8,43.9C47.3,340,48.8,350.9,56.5,359.6z M46.5,271.6
			c0.9-5.7,1.9-11.4,2.4-17.2c0.2-2.4,0-5.6-1.4-7.3c-3.1-3.9-6.8-7.4-10.8-10.5c-1.6-1.3-4.3-1.1-6.6-1.6c-0.3,2.2-1.3,4.7-0.7,6.7
			C32.9,252.6,39.1,262.3,46.5,271.6z"/>
		<path class="st5" d="M323.9,226.3c1.2-0.6,2.4-1.3,4.2-2.2c0.9,7.9,1.7,14.9,2.6,23.4c4.1-3.9,7.2-6.7,10.3-9.6
			c5.1-3,9.5-7.4,16.1-7.5c7.5-0.1,10.3,2.3,10.7,9.7c0.5,9.4-3,16.9-10.3,22.7c-5.8,3.9-11.5,8-17.4,11.7c-2.6,1.7-3,3.4-2.2,6.5
			c3.3,12.7,7.4,25.5,6.5,38.8c-0.6,9.9-3,19.6-4.6,29.4c0.7-4.7-3.6-2.3-5.3-3.8c0.7-0.9,2-1.8,2.2-2.8c2.4-11.9,4.6-23.9,2.2-36
			c-2.4-12.4-5.6-24.6-8.4-36.9C327.2,255.5,324.3,241.1,323.9,226.3z M336.4,271.3c7.8-5.1,15.5-9.1,20.9-16.1
			c3-3.9,5.5-8,5.4-13.1c-0.1-5.6-2.4-7.2-7.7-5.4c-8.2,2.8-14.7,8.2-20.9,13.9c-0.9,0.9-1.8,2.4-1.8,3.6
			C332.3,260.1,334,265.6,336.4,271.3z"/>
		<path class="st6" d="M118.8,407c1.9,1.9,4.9,3,4.5,6.5c-7.2,0.5-6.4,7.3-9.1,11.3c-4.1,5.9-7.9,12-12.3,17.7
			c-2.1,2.7-11,3.8-13.5,1.8c-1.5-1.2-2.6-3.6-3-5.6c-1.7-8.5,1.1-16.3,4.8-23.8c1.6-3.4,3.7-6.6,5.5-9.9
			c-6.3-4.6-12.3-9.1-18.4-13.6c3.2,0.3,6.4,0.6,9.6,0.8C97.5,397.2,108.1,402.1,118.8,407z M101.5,405.7
			c-3.2,6.3-6.7,12.2-9.3,18.4c-1.5,3.6-2.1,7.9-2,11.8c0.1,5,2.9,6.1,6.7,2.8c8.5-7.4,13.5-17.2,18.4-27.5
			C110.5,409.4,106.4,407.8,101.5,405.7z"/>
		<path class="st7" d="M323.9,221.2c-17.7,12.4-37.6,19.5-58.5,24.1c-11.1,2.4-22.3,4.2-33.5,6c-3.6,0.6-7.3,0.2-10.9,0.2
			c-12.7,0-25.5-0.1-38.2-0.2c-1.3-0.3-2.6-1-3.9-1c-15.8,0-31.7,0-47.5,0.1c-12.3,0.6-24.2-1.9-36.1-4.2c-10.3-2-20.6-4.2-30.6-7.1
			c-4.3-1.3-8-4.7-12-7.2c-1.3-11.1-2.5-22.2-3.9-33.3c-0.5-4.1-1.7-8.1-2.8-13.1c2.2,0.8,4.2,1.3,5.9,2.3c6.7,3.9,14,6.8,21.5,7.4
			c13.9,1.2,27.5-0.4,39.8-8.1c10.3-6.4,17.6-15.3,21.9-26.4c7.6-19.7,8-39.8,0.6-59.8c-6.4-17.3-19.2-28.2-36.5-32.6
			c-16.8-4.3-33.5-3-48.8,6.4c-0.8,0.5-1.8,0.4-3.9,0.7c6.3-7.9,10.4-16.2,20.4-20c-3.5-4.2-6.8-8.3-10.2-12.4
			c-7-8.5-6.3-16.7,1.7-23.7c3.4-3,7-2.3,10.8-2.4c9.6-0.5,16.1,4.4,20.7,12.1c1.4,2.4,1.8,5.5,3,9.4c4.4-9.9,13.8-11.2,21.6-14.6
			c8.2-3.5,16.5-7.1,25.1-9.2c10-2.5,20.3-3.7,30.5-4.9c13-1.5,26.1-2.8,39.2-3.7c14.7-1,29.3,0.2,43.9,3.2
			c10.6,2.2,20.8,4.7,30.7,8.9c0.9,0.4,1.6,1.1,2.2,1.6c-1.7,2.4-3.3,4.7-4.8,7c0.5,0.4,0.9,0.9,1.4,1.3c1.9-1.8,4-3.4,5.7-5.4
			c5.5-6.4,12-11.1,20-13.8c12.1-4,20.5-1.2,28.4,8.2c3.1,3.7,1.8,12.4-2.7,16.2c-4.6,3.9-9.7,7.1-14.7,10.6
			c-2.2,1.5-4.5,2.8-6.7,4.2c0.2,0.5,0.5,1.1,0.7,1.6c1.6-0.5,3.5-0.6,4.9-1.4c3.3-1.9,5.4-1.1,7.5,2c9.5,13.8,17.4,28.4,19.9,45.1
			c1.1,7.5,0,15.4,0.2,23.1c0.4,18.5-6.6,35.2-12.1,52.3c-3,9.3-6.4,18.5-8.7,28c-1.6,6.7-1.7,13.8-2.3,20.7
			C322.7,220,323.5,220.6,323.9,221.2z M304.5,173.9c3.6-5.4,8-10.5,10.6-16.4c7.6-16.9,6.8-34.2-0.2-51.1
			c-5.9-14.4-16.2-25.1-29.8-32.1c-9.9-5-20.8-6.7-32.2-6.6c-12.3,0.2-22.8,3.9-32.2,11.4c-3.7,4.1-7.8,7.8-10.9,12.3
			c-8.9,12.9-11.6,27.5-10.9,43c0.1,2.8-0.4,5.7,0.3,8.4c1.6,6.3,3.6,12.5,5.7,18.6c5.7,16.6,17.3,27.2,33.6,32.9
			c4.8,1.7,10,2.7,15.1,2.9c11.3,0.4,22.1-2.3,32.1-7.7C292.8,185.5,299.8,181.1,304.5,173.9z M164.4,187
			c-13.1,5.5-14.5,19-2.3,26.2c-0.6,1.6-1.6,3.1-1.9,4.8c-0.6,3.2-0.8,7.3,2.5,8.5c2.5,0.9,6.1-0.3,9-1.3c1.3-0.5,2.1-2.8,2.7-4.4
			c0.8-2.2,1.3-4.5,1.9-6.8c3.7,0.9,3.7,0.9,4.3,6c0.6,4.7,4.8,8.6,9,8.4c4.2-0.2,5.4-1.9,5.4-8.2c0-2.7,0.8-4.3,3.1-5.9
			c8.2-5.6,7.7-19.5-1-24.8c-2.8-1.7-4.4-3.3-5.2-6.6c-0.5-2.1-2.8-4.9-4.8-5.3c-5-1.1-10.3-1.4-15.5-1.5
			C166.1,176.3,163,180.8,164.4,187z M316.8,26.2c-0.1-0.4-0.3-0.8-0.4-1.2c-8.1-0.6-13.7,2.8-13.7,8.6
			C307.4,31.1,312.1,28.7,316.8,26.2z M82.2,41.6c-3.3-9.1-6.9-10.7-13.5-7.8C72.8,36.1,77.2,38.6,82.2,41.6z"/>
		<path class="st8" d="M138.7,127.2c-0.6,18.5-4,31.6-12.2,43.2c-12.1,17-28.7,23.8-49.3,21.8c-26-2.5-46.7-20.5-53.6-44.8
			c-9.2-32.1,10.5-67.4,42.8-76c4.2-1.1,8.3-3.1,12.8-1c0.6,0.3,1.6,0,2.4-0.1c23.8-1.9,42.5,9.7,51.7,31.9
			C137.3,111.7,138.7,121.5,138.7,127.2z M34.6,103.6c-2.8-1-3,1.3-3.4,2.9c-0.9,4.1,0.4,7.5,4,10c4.6,3.2,9.4,3.5,14.2,0.8
			c3.6-2,5.7-5,5.2-9.4c-0.2-1.2-0.4-2.4-1-3.4c-3.6-6.6-13-7.7-18.8-2.3C34.7,102.7,34.6,103.2,34.6,103.6z"/>
		<path class="st4" d="M334.5,345.5c1.6,1.4,6-0.9,5.3,3.8c-0.8,5.2-5.6,7.2-9.2,8.6c-11.2,4.4-22.8,7.9-34.3,11.4
			c-7.2,2.2-14.5,3.8-21.9,5.4c-12.2,2.5-24.6,4-36.5,7.2c-12.5,3.4-25.2,3-37.9,3.6c-3.7-8.8-1.9-12.1,6.8-12.4
			c0.6,0,1.2-0.1,1.8-0.2c8.9-0.9,17.8-1.5,26.7-2.7c4.1-0.5,8-2.3,12.1-3.1c13.1-2.5,26.3-4.5,39.4-7.3c9.2-2,18.2-4.8,27.3-7.5
			C320.8,350.2,327.6,347.8,334.5,345.5z"/>
		<path class="st5" d="M304.9,390.3c1.3,0.2,2.6,0.4,3.9,0.5c0,0.8,0.1,1.4,0,1.5c-5.6,3.9-5.8,8.2-2.4,14.2c3,5.5,4.4,11.9,6.2,18
			c1.6,5.4,0.2,9.8-3.3,11.7c-4.3,2.5-8.3,1.4-13-2.7c-5.5-4.9-9-11.1-12.4-17.5c-1.4-2.6-3.7-4.6-5.5-6.9c-0.5,0.1-1.1,0.2-1.6,0.3
			c0.8-1.8,1.7-3.7,2.5-5.5C287.7,399.4,296.3,394.9,304.9,390.3z M285.6,406.8c4.2,11.6,8.9,21.9,20.7,26.9
			c3.5-7.4-1.5-25.1-8.9-32.6C293.8,402.8,290,404.6,285.6,406.8z"/>
		<path class="st9" d="M208.5,372.8c-0.6,0.1-1.2,0.2-1.8,0.2c-8.7,0.3-10.5,3.5-6.8,12.4c-8.5,3.3-17,3.9-25.5,0
			c4.5-3.4,1.5-7.9,2.2-12.6c-6.1,0-11.7,0.1-17.3-0.1c-1.4,0-2.9-0.8-4.3-1.2c0-0.3,0-0.5,0-0.8c13.4-0.1,26.7-0.3,40.1-0.1
			C199.6,370.8,204,372.1,208.5,372.8z M193.6,375.8c-4.1,0-7.9,0-12.2,0c0.1,2.2,0.2,4.1,0.3,6c4.3,0,8,0,11.8,0
			C193.6,379.5,193.6,377.9,193.6,375.8z"/>
		<path class="st10" d="M118.8,407c-10.7-4.9-21.3-9.8-32-14.7c6.5,0.1,13.6-1.5,19.2,0.8C111.4,395.4,117.2,399.9,118.8,407z"/>
		<path class="st10" d="M304.9,390.3c-8.6,4.5-17.1,9.1-25.7,13.6C281.5,391.1,290.2,385.5,304.9,390.3z"/>
		<path class="st7" d="M208.5,372.8c-4.5-0.7-8.9-2-13.4-2.1c-13.3-0.2-26.7,0-40.1,0.1c-10.2-0.8-20.4-1.5-30.5-2.3
			c-6.7-0.3-13.5-0.2-20.2-0.9c-7.8-0.8-15.7-1.9-23.4-3.2c-8.2-1.4-16.3-3.2-24.4-4.8c-7.7-8.7-9.2-19.6-9.1-30.4
			c0.1-14.6,1.6-29.3,2.8-43.9c1.1-13.4,2.8-26.8,4-40.2c0.2-2.3-0.6-4.7-1-7c7.5,2.2,14.9,4.9,22.5,6.4c15.4,3.1,30.9,5.5,46.3,8.2
			c4.1,0.7,8.2,1.3,13.7,2.1c-11.5,12-22.2,23.2-33.4,34.9c26.8,25.7,53.3,51.1,80.4,77.1c27.1-25.4,53.6-50.2,80.5-75.3
			c-11.2-12.2-22.1-24-33.8-36.7c4.1-0.8,7.3-1.5,10.6-2c28.9-4.2,57-10.7,82.3-26c0.5-0.3,1.1-0.5,1.6-0.7
			c0.4,14.8,3.3,29.2,6.5,43.5c2.8,12.3,6,24.6,8.4,36.9c2.4,12.1,0.2,24.1-2.2,36c-0.2,1-1.4,1.9-2.2,2.8
			c-6.9,2.2-13.7,4.6-20.6,6.7c-9,2.7-18.1,5.5-27.3,7.5c-13.1,2.8-26.3,4.8-39.4,7.3c-4.1,0.8-8,2.5-12.1,3.1
			C226.3,371.3,217.4,371.9,208.5,372.8z"/>
		<path class="st4" d="M244.7,279.4c2.5,2.1,5.2,4.1,7.5,6.4c1.6,1.6,2.7,3.8,4.4,6.1c-24.3,22.7-49,45.8-74.1,69.3
			c-24.7-23.8-49.3-47.5-74.1-71.3c1.1-1.5,1.9-2.7,2.8-3.6c8.7-9,17.6-17.9,26.1-27.1c2.7-2.9,5.6-4,9.5-3.9
			c22.6,0.4,45.3,1,67.9,0.7c8-0.1,13.4,2.7,17.9,8.7c3.4,4.6,7.2,8.8,10.9,13.3c-6.5,7.7-13,15.3-19.7,23.2
			c-4.8-8.9-9.3-17.2-13.8-25.5c-0.5,0.2-1,0.4-1.4,0.6c4,13.9,7.9,27.8,11.9,41.7c0.5,0.1,1,0.2,1.5,0.4
			C229.6,305.4,237.2,292.4,244.7,279.4z M205.2,273.5c-12.8-1.7-25.1-3.3-37.8-5c-0.6,6.2-1.2,11.9-1.7,16.9
			c10,7.3,19.2,14.1,28.1,20.6c-3.2,3.8-5.9,7.1-8.7,10.5c-6.2-4.4-11.9-8.4-17.7-12.5c-1,1.2-1.7,2-1.7,1.9
			c3.6,3.8,6.9,7.2,10.1,10.7c1.9,2.1,3.3,4.6,5.4,6.4c1,0.8,3.7,1,4.5,0.3c6-5.6,11.7-11.5,17.7-17.5c-2.2-1.8-3.8-3.3-5.6-4.6
			c-7.2-5.4-14.6-10.8-21.8-16.3c-1.9-1.5-4.6-2.9-3.6-6.6c10,1.1,20.1-3.4,30.3,0.8C203.3,277.4,204.1,275.8,205.2,273.5z
			 M152.2,277.5c0-0.6,0-1.1,0.1-1.7c-5.8-4.5-12.6-5.5-19.1-2.5c-5.9,2.7-8.5,8.5-8.7,15.1c-0.3,9.2,2.6,17,10,22.7
			c5,3.9,11,5.4,16.9,3c6.1-2.4,9-7.8,9.8-14.2c0.1-0.6-0.6-1.3-1.2-2.3c-1.1,1-1.8,1.6-2.5,2.3c-3.8,3.9-8.2,6.4-13.7,4.9
			c-4.8-1.4-7.1-5.6-7.5-10.1c-0.4-3.8,0.2-8,1.5-11.6c2.1-5.8,4.9-6.8,10.9-5.5C149.8,277.7,151,277.5,152.2,277.5z"/>
		<path class="st11" d="M244.7,279.4c-7.6,13-15.1,25.9-22.7,38.9c-0.5-0.1-1-0.2-1.5-0.4c-4-13.9-7.9-27.8-11.9-41.7
			c0.5-0.2,1-0.4,1.4-0.6c4.5,8.3,9,16.7,13.8,25.5c6.7-7.9,13.2-15.5,19.7-23.2C243.9,278.4,244.3,278.9,244.7,279.4z"/>
		<path class="st12" d="M131.5,250.5c15.8,0,31.7-0.1,47.5-0.1c1.3,0,2.6,0.6,3.9,1c-15.8,0-31.5,0-47.3-0.1
			C134.2,251.2,132.9,250.7,131.5,250.5z"/>
		<path class="st13" d="M124.5,368.6c10.2,0.8,20.4,1.5,30.5,2.3c0,0.3,0,0.5,0,0.8c-5.6,0.1-11.3,0.7-16.9,0.2
			C133.6,371.4,129.1,369.7,124.5,368.6z"/>
		<path class="st14" d="M46.5,271.6c-7.5-9.3-13.6-18.9-17-30c-0.6-2,0.4-4.5,0.7-6.7c2.2,0.5,5,0.3,6.6,1.6
			c3.9,3.1,7.7,6.6,10.8,10.5c1.4,1.7,1.6,4.9,1.4,7.3C48.5,260.1,47.4,265.8,46.5,271.6z"/>
		<path class="st15" d="M336.4,271.3c-2.3-5.8-4-11.2-4.1-17.1c0-1.2,0.8-2.8,1.8-3.6c6.3-5.7,12.7-11.2,20.9-13.9
			c5.3-1.8,7.6-0.2,7.7,5.4c0.1,5.1-2.4,9.2-5.4,13.1C351.8,262.2,344.2,266.3,336.4,271.3z"/>
		<path class="st16" d="M101.5,405.7c4.9,2,9,3.6,13.8,5.6c-4.9,10.3-9.9,20.1-18.4,27.5c-3.8,3.3-6.6,2.1-6.7-2.8
			c0-3.9,0.6-8.2,2-11.8C94.8,417.9,98.2,412,101.5,405.7z"/>
		<path class="st5" d="M164.4,187c-1.4-6.2,1.7-10.8,7.3-10.7c5.2,0,10.4,0.3,15.5,1.5c2,0.4,4.3,3.2,4.8,5.3
			c0.8,3.3,2.4,4.9,5.2,6.6c8.6,5.2,9.2,19.1,1,24.8c-2.3,1.6-3.1,3.2-3.1,5.9c0,6.3-1.3,7.9-5.4,8.2c-4.2,0.2-8.5-3.7-9-8.4
			c-0.6-5.1-0.6-5.1-4.3-6c-0.6,2.3-1.1,4.6-1.9,6.8c-0.6,1.6-1.4,3.9-2.7,4.4c-2.8,1.1-6.5,2.3-9,1.3c-3.3-1.2-3-5.3-2.5-8.5
			c0.3-1.7,1.2-3.2,1.9-4.8C149.9,206,151.3,192.5,164.4,187z M190,211.2c0.4,0,0.8,0,1.2,0c3.5-0.3,6.9-0.9,8.5-4.6
			c1.5-3.4,0-8.5-3.3-11.5c-2.9-2.6-5.8-3.8-9.7-1.5c-5.5,3.2-11.3,2.5-16.6-0.6c-2.8-1.6-5.7-2.1-7.6,0.4c-1.8,2.4-3.2,5.6-3.3,8.5
			c-0.1,3.1,2.2,5.5,5.8,5.9C173.3,209,181.7,210.1,190,211.2z M165.4,223.2c4.3-1.2,6.7-3.8,6.4-7.3c-0.1-1-1-2.2-1.8-2.8
			c-0.5-0.3-2,0.3-2.5,0.9C165.1,216.7,163.4,219.6,165.4,223.2z M188.7,225c0.7-0.2,1.3-0.4,2-0.6c0.2-2.1,0.8-4.2,0.5-6.2
			c-0.4-2.7-2.8-3.7-5-2.7c-0.8,0.4-1.4,3.1-0.9,4.4C185.9,221.7,187.5,223.3,188.7,225z"/>
		<path class="st17" d="M304.5,173.9c-4.6,7.2-11.6,11.7-18.9,15.6c-9.9,5.4-20.8,8.1-32.1,7.7c-5.1-0.2-10.3-1.2-15.1-2.9
			c-16.2-5.7-27.9-16.4-33.6-32.9c-2.1-6.1-4.1-12.3-5.7-18.6c-0.7-2.6-0.2-5.6-0.3-8.4c-0.6-15.4,2-30.1,10.9-43
			c3.1-4.5,7.2-8.2,10.9-12.3c0.5,0.4,1,0.7,1.4,1.1c-2.5,3.3-5.3,6.4-7.6,9.8c-16,23.5-16.8,48.4-5.3,73.6
			c10.5,23,32.3,33.7,57.2,29.4c14.6-2.5,26.5-10.1,36.7-20.6C303.5,173,304,173.4,304.5,173.9z"/>
		<path class="st18" d="M222.1,80.3c-0.5-0.4-1-0.7-1.4-1.1c9.4-7.5,19.9-11.2,32.2-11.4c11.4-0.2,22.3,1.5,32.2,6.6
			c13.6,6.9,23.9,17.7,29.8,32.1c7,17,7.8,34.2,0.2,51.1c-2.6,5.9-7,10.9-10.6,16.4c-0.5-0.5-1-0.9-1.4-1.4
			c3.3-5.4,7.3-10.5,9.7-16.3c11.4-27.6,3.2-57.1-21.2-74.7c-15-10.8-31.9-13.7-50.1-9.9C234.2,73.1,228.4,77.2,222.1,80.3z"/>
		<path class="st19" d="M316.8,26.2c-4.7,2.4-9.3,4.9-14.1,7.4c0-5.8,5.6-9.2,13.7-8.6C316.5,25.4,316.6,25.8,316.8,26.2z"/>
		<path class="st20" d="M82.2,41.6c-5.1-2.9-9.5-5.5-13.5-7.8C75.4,30.8,78.9,32.5,82.2,41.6z"/>
		<path class="st21" d="M34.7,102.3c5.8-5.5,15.2-4.4,18.8,2.3c0.6,1,0.8,2.3,1,3.4c0.6,4.4-1.6,7.4-5.2,9.4
			c-4.8,2.7-9.6,2.4-14.2-0.8c-3.6-2.5-4.8-5.9-4-10c0.3-1.6,0.6-3.9,3.4-2.9c-1.8,3.4,0.4,5,3.1,5.5c2.5,0.4,4.2-1.6,3.9-4.1
			c-0.3-2.7-2.2-4.1-5.2-3.2C35.9,102,35.3,102.1,34.7,102.3z"/>
		<path class="st22" d="M34.7,102.3c0.6-0.2,1.2-0.3,1.7-0.5c3-0.9,4.8,0.5,5.2,3.2c0.3,2.4-1.4,4.5-3.9,4.1c-2.7-0.4-4.9-2-3.1-5.5
			C34.6,103.2,34.7,102.7,34.7,102.3z"/>
		<path class="st16" d="M285.6,406.8c4.5-2.2,8.2-4,11.8-5.8c7.4,7.5,12.4,25.3,8.9,32.6C294.5,428.7,289.8,418.5,285.6,406.8z"/>
		<path class="st23" d="M193.6,375.8c0,2.2,0,3.8,0,6c-3.8,0-7.5,0-11.8,0c-0.1-1.9-0.2-3.8-0.3-6
			C185.7,375.8,189.5,375.8,193.6,375.8z"/>
		<path class="st24" d="M205.2,273.5c-1.1,2.3-1.8,3.9-2.5,5.5c-10.2-4.2-20.3,0.3-30.3-0.8c-1,3.7,1.7,5.1,3.6,6.6
			c7.2,5.5,14.5,10.9,21.8,16.3c1.8,1.3,3.4,2.8,5.6,4.6c-5.9,6-11.7,11.9-17.7,17.5c-0.8,0.7-3.5,0.5-4.5-0.3
			c-2.1-1.8-3.5-4.3-5.4-6.4c-3.2-3.5-6.5-6.9-10.1-10.7c-0.1,0.1,0.6-0.7,1.7-1.9c5.8,4.1,11.5,8.1,17.7,12.5
			c2.8-3.4,5.6-6.7,8.7-10.5c-8.9-6.5-18.1-13.2-28.1-20.6c0.5-5,1.1-10.7,1.7-16.9C180.1,270.2,192.3,271.8,205.2,273.5z"/>
		<path class="st24" d="M152.2,277.5c-1.2,0-2.3,0.2-3.5,0c-6-1.3-8.8-0.3-10.9,5.5c-1.3,3.6-1.9,7.8-1.5,11.6
			c0.4,4.5,2.7,8.7,7.5,10.1c5.5,1.6,9.9-1,13.7-4.9c0.7-0.7,1.4-1.3,2.5-2.3c0.5,1,1.2,1.7,1.2,2.3c-0.8,6.4-3.7,11.8-9.8,14.2
			c-6,2.4-12,0.9-16.9-3c-7.3-5.7-10.2-13.5-10-22.7c0.2-6.7,2.7-12.4,8.7-15.1c6.5-2.9,13.3-2,19.1,2.5
			C152.2,276.4,152.2,276.9,152.2,277.5z"/>
		<path class="st25" d="M190,211.2c-8.4-1.1-16.7-2.3-25.1-3.4c-3.5-0.5-5.9-2.9-5.8-5.9c0.1-2.9,1.5-6.1,3.3-8.5
			c1.9-2.5,4.8-2,7.6-0.4c5.4,3.1,11.1,3.9,16.6,0.6c3.9-2.3,6.8-1,9.7,1.5c3.3,3,4.8,8,3.3,11.5c-1.6,3.7-5,4.3-8.5,4.6
			C190.8,211.3,190.4,211.2,190,211.2z"/>
		<path class="st26" d="M165.4,223.2c-1.9-3.6-0.2-6.5,2-9.1c0.5-0.6,2.1-1.2,2.5-0.9c0.9,0.6,1.7,1.8,1.8,2.8
			C172.1,219.4,169.7,222,165.4,223.2z"/>
		<path class="st27" d="M188.7,225c-1.2-1.7-2.9-3.2-3.5-5.1c-0.4-1.3,0.1-4,0.9-4.4c2.3-1,4.6,0,5,2.7c0.3,2-0.3,4.1-0.5,6.2
			C190.1,224.6,189.4,224.8,188.7,225z"/>
		<path class="st8" d="M222.1,80.3c6.4-3.1,12.2-7.2,19.4-8.7c18.2-3.7,35.2-0.9,50.1,9.9c24.3,17.6,32.5,47.1,21.2,74.7
			c-2.4,5.8-6.4,10.9-9.7,16.3c-10.2,10.5-22.1,18.1-36.7,20.6c-24.9,4.2-46.7-6.4-57.2-29.4c-11.4-25.1-10.7-50.1,5.3-73.6
			C216.8,86.7,219.5,83.6,222.1,80.3z M303.4,116.5c0-7-5.8-13.1-12.3-13.1c-5.2,0-9.5,4.3-9.5,9.6c0,6.2,6.1,12.6,12.3,12.8
			C299.6,125.9,303.4,122.2,303.4,116.5z"/>
		<path class="st28" d="M303.4,116.5c0,5.7-3.8,9.4-9.6,9.3c-6.2-0.2-12.3-6.6-12.3-12.8c0-5.3,4.3-9.6,9.5-9.6
			C297.6,103.4,303.4,109.5,303.4,116.5z M297.6,111.1c-2.3-1.8-3.8-3.8-5-3.7c-1.4,0.2-3.6,2.3-3.6,3.6c0,1.3,2.1,3.6,3.4,3.7
			C293.7,114.9,295.2,112.8,297.6,111.1z"/>
		<path class="st29" d="M297.6,111.1c-2.4,1.8-3.9,3.8-5.2,3.7c-1.3-0.1-3.5-2.4-3.4-3.7c0.1-1.3,2.2-3.5,3.6-3.6
			C293.8,107.2,295.3,109.3,297.6,111.1z"/>
	</g>
</g>
</svg>
